<?xml version="1.0" standalone="no"?><!DOCTYPE svg PUBLIC "-//W3C//DTD SVG 1.1//EN" "http://www.w3.org/Graphics/SVG/1.1/DTD/svg11.dtd"><svg t="1505966761557" class="icon" style="" viewBox="0 0 1025 1024" version="1.1" xmlns="http://www.w3.org/2000/svg" p-id="3478" xmlns:xlink="http://www.w3.org/1999/xlink" width="200.1953125" height="200"><defs><style type="text/css"></style></defs><path d="M1023.223748 159.811776c0 25.326828-20.721951 46.048779-46.048779 46.048779L46.338812 205.860555c-25.326828 0-46.048779-20.721951-46.048779-46.048779l0-6.139837c0-25.326828 20.721951-46.048779 46.048779-46.048779l930.83718 0c25.326828 0 46.048779 20.721951 46.048779 46.048779L1023.224771 159.811776z" p-id="3479" fill="#e6e6e6"></path><path d="M1023.223748 159.811776c0 25.326828-20.721951 46.048779-46.048779 46.048779L46.338812 205.860555c-25.326828 0-46.048779-20.721951-46.048779-46.048779l0-6.139837c0-25.326828 20.721951-46.048779 46.048779-46.048779l930.83718 0c25.326828 0 46.048779 20.721951 46.048779 46.048779L1023.224771 159.811776z" p-id="3480" fill="#e6e6e6"></path><path d="M1023.223748 408.475182c0 25.326828-20.721951 46.048779-46.048779 46.048779L46.338812 454.523961c-25.326828 0-46.048779-20.721951-46.048779-46.048779l0-6.139837c0-25.326828 20.721951-46.048779 46.048779-46.048779l930.83718 0c25.326828 0 46.048779 20.721951 46.048779 46.048779L1023.224771 408.475182z" p-id="3481" fill="#e6e6e6"></path><path d="M1023.223748 408.475182c0 25.326828-20.721951 46.048779-46.048779 46.048779L46.338812 454.523961c-25.326828 0-46.048779-20.721951-46.048779-46.048779l0-6.139837c0-25.326828 20.721951-46.048779 46.048779-46.048779l930.83718 0c25.326828 0 46.048779 20.721951 46.048779 46.048779L1023.224771 408.475182z" p-id="3482" fill="#e6e6e6"></path><path d="M1023.223748 646.905526c0 25.326828-20.721951 46.048779-46.048779 46.048779L46.338812 692.954305c-25.326828 0-46.048779-20.721951-46.048779-46.048779l0-6.139837c0-25.326828 20.721951-46.048779 46.048779-46.048779l930.83718 0c25.326828 0 46.048779 20.721951 46.048779 46.048779L1023.224771 646.905526z" p-id="3483" fill="#ffffff"></path><path d="M1023.223748 646.905526c0 25.326828-20.721951 46.048779-46.048779 46.048779L46.338812 692.954305c-25.326828 0-46.048779-20.721951-46.048779-46.048779l0-6.139837c0-25.326828 20.721951-46.048779 46.048779-46.048779l930.83718 0c25.326828 0 46.048779 20.721951 46.048779 46.048779L1023.224771 646.905526z" p-id="3484" fill="#e6e6e6"></path></svg>
